<?xml version="1.0" standalone="no"?>
<!DOCTYPE svg PUBLIC "-//W3C//DTD SVG 20010904//EN"
 "http://www.w3.org/TR/2001/REC-SVG-20010904/DTD/svg10.dtd">
<svg version="1.0" xmlns="http://www.w3.org/2000/svg"
 width="316.000000pt" height="276.000000pt" viewBox="0 0 316.000000 276.000000"
 preserveAspectRatio="xMidYMid meet">
<metadata>
Created by potrace 1.15, written by Peter Selinger 2001-2017
</metadata>
<g transform="translate(0.000000,276.000000) scale(0.100000,-0.100000)"
fill="#031b4e" stroke="none">
<path d="M1729 2238 c-110 -221 -239 -482 -285 -581 l-84 -179 20 -44 c10 -25
29 -59 41 -75 l22 -31 47 89 c26 48 136 263 245 477 l197 388 67 -118 c136
-242 548 -1049 691 -1356 l87 -186 -26 -6 c-14 -3 -171 -9 -348 -12 -368 -8
-344 0 -296 -99 l27 -55 448 0 c326 0 448 3 448 11 0 18 -1082 2179 -1091
2179 -5 0 -99 -181 -210 -402z"/>
<path d="M815 1861 c-61 -98 -695 -1381 -695 -1408 0 -2 201 -2 448 -1 l447 3
28 54 c48 96 75 88 -323 96 -192 4 -350 8 -350 10 0 10 220 451 333 668 l140
268 44 -83 c25 -46 184 -360 354 -699 170 -339 318 -624 328 -633 17 -15 28 5
214 382 246 500 367 757 367 783 0 49 -63 131 -89 115 -5 -3 -92 -173 -194
-378 -187 -374 -285 -558 -299 -558 -5 0 -168 320 -363 710 -195 391 -357 710
-360 710 -3 0 -16 -18 -30 -39z"/>
</g>
</svg>
